<svg width="64" height="58" viewBox="0 0 64 58" fill="none" xmlns="http://www.w3.org/2000/svg">
<path d="M26.2905 30.7296C26.2905 30.7296 24.6485 31.5955 27.461 31.8882C30.868 32.2407 32.6095 32.19 36.3635 31.547C36.3635 31.547 37.353 32.1075 38.731 32.5933C30.313 35.8616 19.679 32.4038 26.2905 30.7296ZM25.261 26.4634C25.261 26.4634 23.419 27.7 26.2335 27.9637C29.8735 28.304 32.747 28.3321 37.723 27.4639C37.723 27.4639 38.4095 28.0964 39.491 28.4413C29.315 31.1392 17.9805 28.6538 25.261 26.4634Z" fill="#0074BD"/>
<path d="M33.9325 19.2266C36.008 21.3916 33.3885 23.3382 33.3885 23.3382C33.3885 23.3382 38.655 20.8746 36.2365 17.7883C33.977 14.9115 32.2455 13.4828 41.622 8.55457C41.622 8.55457 26.903 11.885 33.9325 19.2266Z" fill="#EA2D2E"/>
<path d="M45.066 33.8852C45.066 33.8852 46.282 34.7937 43.727 35.496C38.869 36.8296 23.505 37.2319 19.2375 35.549C17.7045 34.9441 20.581 34.1049 21.4855 33.9287C22.429 33.7433 22.968 33.7773 22.968 33.7773C21.262 32.6885 11.9405 35.9156 18.2335 36.8413C35.3955 39.3621 49.517 35.7058 45.066 33.8852ZM27.081 22.0432C27.081 22.0432 19.2665 23.7256 24.314 24.3374C26.446 24.5956 30.693 24.5363 34.652 24.2354C37.8865 23.9894 41.1325 23.4633 41.1325 23.4633C41.1325 23.4633 39.993 23.9064 39.1675 24.4167C31.2305 26.3085 15.901 25.4271 20.3145 23.4932C24.046 21.857 27.081 22.0432 27.081 22.0432ZM41.1 29.1437C49.1675 25.3456 45.437 21.6952 42.8335 22.1868C42.197 22.3074 41.911 22.4116 41.911 22.4116C41.911 22.4116 42.1485 22.0745 42.6 21.9299C47.751 20.2896 51.7115 26.7697 40.939 29.3362C40.939 29.3362 41.0625 29.2347 41.1 29.1437Z" fill="#0074BD"/>
<path d="M36.237 0.594971C36.237 0.594971 40.7045 4.64546 31.999 10.8728C25.018 15.8694 30.407 18.7177 31.996 21.9734C27.921 18.6411 24.932 15.7076 26.937 12.978C29.8815 8.97144 38.039 7.02799 36.237 0.594971Z" fill="#EA2D2E"/>
<path d="M27.8745 39.4395C35.6165 39.8881 47.509 39.1899 47.7905 35.8698C47.7905 35.8698 47.2495 37.1281 41.391 38.1268C34.782 39.2542 26.6295 39.1232 21.7955 38.4001C21.7955 38.4001 22.7855 39.1432 27.8745 39.4395Z" fill="#0074BD"/>
<path d="M47.433 45.3945H47.197V45.2749H47.832V45.3945H47.597V45.9913H47.4325L47.433 45.3945ZM48.7005 45.4244H48.6975L48.4635 45.9913H48.3555L48.123 45.4244H48.1205V45.9913H47.9645V45.2749H48.193L48.4085 45.782L48.6245 45.2749H48.8515V45.9913H48.7005V45.4244ZM26.6055 52.1262C25.8755 52.6998 25.1035 53.0224 24.41 53.0224C23.423 53.0224 22.8875 52.485 22.8875 51.6245C22.8875 50.6934 23.4605 50.0114 25.7565 50.0114H26.605L26.6055 52.1262ZM28.621 54.187V47.8083C28.621 46.1775 27.5945 45.1018 25.1225 45.1018C23.6795 45.1018 22.4145 45.4253 21.386 45.8368L21.682 46.9664C22.492 46.6968 23.5395 46.4467 24.5675 46.4467C25.9925 46.4467 26.605 46.9664 26.605 48.0421V48.8482H25.893C22.4325 48.8482 20.871 50.0649 20.871 51.8946C20.871 53.471 21.9 54.3669 23.8375 54.3669C25.0825 54.3669 26.013 53.901 26.8815 53.2191L27.0395 54.1874L28.621 54.187ZM35.347 54.187H32.8335L29.808 45.2654H32.0035L33.8815 50.7477L34.299 52.3949C35.247 50.0123 35.919 47.5935 36.255 45.2658H38.3905C37.819 48.2025 36.789 51.4274 35.347 54.187ZM44.991 52.1262C44.2585 52.6998 43.486 53.0224 42.795 53.0224C41.807 53.0224 41.272 52.485 41.272 51.6245C41.272 50.6934 41.8465 50.0114 44.14 50.0114H44.9905L44.991 52.1262ZM47.0075 54.187V47.8083C47.0075 46.1775 45.978 45.1018 43.508 45.1018C42.0635 45.1018 40.799 45.4253 39.7705 45.8368L40.067 46.9664C40.877 46.6968 41.926 46.4467 42.954 46.4467C44.377 46.4467 44.991 46.9664 44.991 48.0421V48.8482H44.279C40.8175 48.8482 39.2565 50.0649 39.2565 51.8946C39.2565 53.471 40.2845 54.3669 42.2215 54.3669C43.467 54.3669 44.396 53.901 45.267 53.2191L45.426 54.1874L47.0075 54.187ZM18.661 55.7031C18.0875 56.4639 17.1585 57.0661 16.1425 57.4055L15.148 56.3429C15.9215 55.9832 16.584 55.4027 16.8925 54.8617C17.1585 54.38 17.269 53.7606 17.269 52.2784V42.0912H19.411V52.1384C19.411 54.1208 19.237 54.9224 18.661 55.7031Z" fill="#EA2D2E"/>
</svg>
