<svg width="47" height="45" viewBox="0 0 47 45" fill="none" xmlns="http://www.w3.org/2000/svg">
<path d="M35.9844 0H11.0156C4.93186 0 0 4.722 0 10.5469V34.4531C0 40.278 4.93186 45 11.0156 45H35.9844C42.0681 45 47 40.278 47 34.4531V10.5469C47 4.722 42.0681 0 35.9844 0Z" fill="#0277BD"/>
<path d="M9.86871 18.0441L10.3942 23.6589H23.5176V18.0441H9.86871ZM23.5174 6.67969H8.8125L9.34566 12.2945H23.5174V6.67969ZM23.5174 38.4681V32.6264L23.4917 32.6329L16.9606 30.9445L16.5431 26.4663H10.6561L11.4777 35.2825L23.4905 38.4754L23.5174 38.4681Z" fill="#EBEBEB"/>
<path d="M30.7185 23.6589L30.0378 30.9408L23.4973 32.6311V38.4725L35.5195 35.2825L35.6076 34.3338L36.9857 19.552L37.1287 18.0441L38.1875 6.67969H23.4973V12.2945H31.7606L31.2271 18.0441H23.4973V23.6589H30.7185Z" fill="white"/>
</svg>
