<svg width="49" height="50" viewBox="0 0 49 50" fill="none" xmlns="http://www.w3.org/2000/svg">
<g clip-path="url(#clip0_7_53)">
<path d="M40.8652 0H8.13477C3.64206 0 0 3.80558 0 8.5V41.42C0 46.1144 3.64206 49.92 8.13477 49.92H40.8652C45.3579 49.92 49 46.1144 49 41.42V8.5C49 3.80558 45.3579 0 40.8652 0Z" fill="#470137"/>
<path d="M25.7591 13.128L19.645 23.6726L26.1863 34.8696C26.2284 34.948 26.2401 35.04 26.2192 35.1272C26.2091 35.1644 26.1872 35.1736 26.1538 35.175L26.1166 35.1744L26.0714 35.1732C26.0469 35.1732 26.0196 35.1744 25.9891 35.1796H21.2729L21.1803 35.178C20.9261 35.171 20.7429 35.133 20.6313 34.9382C20.1949 34.0499 19.7566 33.1626 19.3163 32.2764C18.9225 31.486 18.518 30.7014 18.1028 29.923L17.9195 29.5802C17.4229 28.6581 16.9353 27.7307 16.4567 26.7982H16.4238C15.9819 27.7209 15.5271 28.6369 15.0597 29.5458C14.5882 30.4618 14.1225 31.3722 13.6626 32.2764C13.2024 33.1813 12.7312 34.0801 12.2492 34.9726C12.1717 35.1546 12.0429 35.1926 11.8636 35.1988L11.7889 35.2H7.28569L7.26617 35.2006L7.20186 35.2066C7.16606 35.2088 7.14462 35.2008 7.13773 35.1444C7.12538 35.0607 7.14296 34.9751 7.18712 34.904L13.5311 24.016L7.35134 13.094C7.28569 13.0028 7.27478 12.9284 7.31842 12.8708C7.34268 12.8415 7.37314 12.8184 7.40739 12.8035C7.44164 12.7886 7.47874 12.7822 7.51576 12.7848H12.1505C12.2515 12.779 12.3526 12.7966 12.4464 12.8364C12.5249 12.883 12.5924 12.9476 12.6435 13.0254C13.038 13.9414 13.4763 14.8574 13.9585 15.773C14.4369 16.6828 14.9245 17.5873 15.4212 18.4864C15.9103 19.3715 16.3654 20.2767 16.7854 21.1998H16.8183C17.2487 20.2769 17.6925 19.361 18.1495 18.4522C18.5984 17.5592 19.0587 16.6602 19.5299 15.7558C19.9952 14.863 20.45 13.9643 20.8941 13.0598C20.9194 12.975 20.9645 12.8982 21.0256 12.8364C21.1068 12.7935 21.198 12.7756 21.2886 12.7848H25.5947C25.6342 12.7745 25.676 12.7779 25.7135 12.7945C25.7511 12.8111 25.7825 12.84 25.803 12.8768C25.8235 12.9137 25.832 12.9565 25.8273 12.9989C25.8225 13.0412 25.8047 13.0808 25.7765 13.1116L25.7593 13.1284L25.7591 13.128ZM35.4193 35.6226L35.1927 35.6252C33.6797 35.6493 32.1806 35.3208 30.8043 34.6636C29.5223 34.0436 28.4506 33.0315 27.7309 31.7612C27.0053 30.502 26.6328 28.9328 26.6141 27.0542L26.6133 26.9012C26.601 25.3248 26.9866 23.7729 27.7311 22.4018C28.4763 21.0448 29.5626 19.9266 30.8725 19.1686L30.9852 19.1046C32.4093 18.2802 34.1296 17.868 36.1459 17.868L36.234 17.869L36.3346 17.8724L36.4476 17.8776L36.5731 17.8852L36.7841 17.9008L37.0229 17.9208L37.1977 17.9368V11.1704C37.1977 11.0104 37.2635 10.93 37.3948 10.93H41.5367C41.5635 10.926 41.5908 10.9286 41.6165 10.9375C41.6421 10.9464 41.6655 10.9615 41.6846 10.9815C41.7037 11.0015 41.7181 11.0258 41.7267 11.0527C41.7352 11.0795 41.7377 11.108 41.7338 11.136V31.435C41.7338 31.7758 41.7465 32.143 41.7717 32.5358L41.833 33.4268L41.8655 33.9422C41.8696 34.0136 41.8529 34.0846 41.8177 34.1459C41.7825 34.2072 41.7304 34.256 41.6682 34.2858C40.5997 34.7514 39.4868 35.0967 38.3482 35.316C37.3817 35.5024 36.4021 35.605 35.4193 35.6226ZM37.1977 31.3662V21.9896C37.0201 21.9393 36.8387 21.9049 36.6554 21.8866C36.4315 21.8631 36.2066 21.8516 35.9815 21.8522C35.1839 21.844 34.3956 22.0322 33.6806 22.4018C32.9842 22.7635 32.3896 23.3079 31.9549 23.9818C31.521 24.645 31.2965 25.511 31.2817 26.5798L31.281 26.6952C31.265 27.4439 31.382 28.1891 31.6261 28.8932C31.8248 29.4606 32.1389 29.9763 32.5467 30.4046C32.937 30.7986 33.4096 31.0925 33.9271 31.2632C34.4739 31.4482 35.0453 31.541 35.6199 31.5382C35.9266 31.5382 36.2114 31.5266 36.4746 31.5036C36.6845 31.4871 36.8925 31.451 37.0963 31.3956L37.1977 31.3662Z" fill="#FF61F6"/>
</g>
<defs>
<clipPath id="clip0_7_53">
<rect width="49" height="50" fill="white"/>
</clipPath>
</defs>
</svg>
