<svg width="46" height="58" viewBox="0 0 46 58" fill="none" xmlns="http://www.w3.org/2000/svg">
<g clip-path="url(#clip0_7_15)">
<path d="M11.5 58C17.848 58 23 53.6694 23 48.3334V38.6667H11.5C5.152 38.6667 0 42.9974 0 48.3334C0 53.6694 5.152 58 11.5 58Z" fill="#0ACF83"/>
<path d="M0 29C0 23.664 5.152 19.3333 11.5 19.3333H23V38.6666H11.5C5.152 38.6666 0 34.336 0 29Z" fill="#A259FF"/>
<path d="M0 9.66667C0 4.33067 5.152 0 11.5 0H23V19.3333H11.5C5.152 19.3333 0 15.0027 0 9.66667Z" fill="#F24E1E"/>
<path d="M23 0H34.5C40.848 0 46 4.33067 46 9.66667C46 15.0027 40.848 19.3333 34.5 19.3333H23V0Z" fill="#FF7262"/>
<path d="M46 29C46 34.336 40.848 38.6666 34.5 38.6666C28.152 38.6666 23 34.336 23 29C23 23.664 28.152 19.3333 34.5 19.3333C40.848 19.3333 46 23.664 46 29Z" fill="#1ABCFE"/>
</g>
<defs>
<clipPath id="clip0_7_15">
<rect width="46" height="58" fill="white"/>
</clipPath>
</defs>
</svg>
