<svg width="47" height="47" viewBox="0 0 47 47" fill="none" xmlns="http://www.w3.org/2000/svg">
<g clip-path="url(#clip0_7_50)">
<path d="M23.301 0.0132446C11.3982 0.0132446 12.1414 5.19523 12.1414 5.19523L12.1546 10.5639H23.5132V12.1757H7.64318C7.64318 12.1757 0.0266113 11.3085 0.0266113 23.3654C0.0266113 35.4227 6.67454 34.9951 6.67454 34.9951H10.642V29.4C10.642 29.4 10.4281 22.726 17.1838 22.726H28.4495C28.4495 22.726 34.7789 22.8287 34.7789 16.5849V6.26111C34.7789 6.26111 35.7402 0.0132446 23.301 0.0132446ZM17.0379 3.62358C17.3063 3.62334 17.5721 3.67624 17.8201 3.77924C18.0681 3.88225 18.2935 4.03335 18.4833 4.22389C18.6731 4.41443 18.8236 4.64067 18.9262 4.88967C19.0288 5.13866 19.0815 5.40553 19.0813 5.67499C19.0815 5.94446 19.0288 6.21132 18.9262 6.46032C18.8236 6.70932 18.6731 6.93556 18.4833 7.1261C18.2935 7.31664 18.0681 7.46774 17.8201 7.57075C17.5721 7.67375 17.3063 7.72665 17.0379 7.72641C16.7694 7.72665 16.5036 7.67375 16.2556 7.57075C16.0076 7.46774 15.7822 7.31664 15.5924 7.1261C15.4026 6.93556 15.2521 6.70932 15.1495 6.46032C15.0469 6.21132 14.9942 5.94446 14.9945 5.67499C14.9942 5.40553 15.0469 5.13866 15.1495 4.88967C15.2521 4.64067 15.4026 4.41443 15.5924 4.22389C15.7822 4.03335 16.0076 3.88225 16.2556 3.77924C16.5036 3.67624 16.7694 3.62334 17.0379 3.62358Z" fill="url(#paint0_linear_7_50)"/>
<path d="M23.639 46.8389C35.5417 46.8389 34.7986 41.6569 34.7986 41.6569L34.7853 36.2884H23.4266V34.6766H39.2966C39.2966 34.6766 46.9132 35.5438 46.9132 23.4866C46.9132 11.4295 40.2652 11.8571 40.2652 11.8571H36.2978V17.4519C36.2978 17.4519 36.5117 24.1259 29.756 24.1259H18.4903C18.4903 24.1259 12.1609 24.0233 12.1609 30.2673V40.5912C12.1609 40.5912 11.1998 46.8389 23.6388 46.8389H23.639ZM29.9021 43.229C29.6337 43.2292 29.3679 43.1763 29.1199 43.0733C28.8718 42.9703 28.6465 42.8192 28.4567 42.6287C28.2669 42.4381 28.1164 42.2119 28.0138 41.9629C27.9112 41.7139 27.8585 41.447 27.8587 41.1775C27.8584 40.9081 27.9111 40.6412 28.0137 40.3922C28.1163 40.1431 28.2668 39.9169 28.4566 39.7263C28.6464 39.5358 28.8718 39.3846 29.1198 39.2816C29.3678 39.1786 29.6337 39.1257 29.9021 39.1259C30.1705 39.1257 30.4363 39.1786 30.6844 39.2816C30.9324 39.3846 31.1578 39.5357 31.3475 39.7262C31.5373 39.9168 31.6879 40.143 31.7905 40.392C31.8931 40.641 31.9458 40.9079 31.9455 41.1774C31.9458 41.4468 31.8931 41.7137 31.7905 41.9627C31.6879 42.2117 31.5373 42.4379 31.3475 42.6285C31.1578 42.819 30.9324 42.9701 30.6844 43.0731C30.4363 43.1761 30.1705 43.2292 29.9021 43.229Z" fill="url(#paint1_linear_7_50)"/>
</g>
<defs>
<linearGradient id="paint0_linear_7_50" x1="450.605" y1="421.182" x2="2783.16" y2="2721.45" gradientUnits="userSpaceOnUse">
<stop stop-color="#387EB8"/>
<stop offset="1" stop-color="#366994"/>
</linearGradient>
<linearGradient id="paint1_linear_7_50" x1="677.215" y1="731.785" x2="3181.66" y2="3090.07" gradientUnits="userSpaceOnUse">
<stop stop-color="#FFE052"/>
<stop offset="1" stop-color="#FFC331"/>
</linearGradient>
<clipPath id="clip0_7_50">
<rect width="47" height="47" fill="white"/>
</clipPath>
</defs>
</svg>
