<svg width="42" height="46" viewBox="0 0 42 46" fill="none" xmlns="http://www.w3.org/2000/svg">
<g clip-path="url(#clip0_7_44)">
<path d="M41.9979 13.5109C41.9975 12.7383 41.8277 12.0555 41.4844 11.4695C41.1474 10.8932 40.6422 10.4102 39.965 10.0283C34.3737 6.88962 28.7767 3.7605 23.1873 0.618605C21.6804 -0.228402 20.2194 -0.197575 18.7235 0.66173C16.498 1.93951 5.35566 8.1543 2.0352 10.0266C0.667898 10.7972 0.00246094 11.9766 0.00213281 13.5093C0 19.8217 0.00213281 26.1338 0 32.4461C0 33.2016 0.162914 33.8713 0.491039 34.4486C0.828352 35.0423 1.34039 35.5385 2.03339 35.929C5.35402 37.8013 16.4978 44.0158 18.7228 45.2937C20.2192 46.1533 21.6804 46.1842 23.1878 45.3368C28.7774 42.1948 34.3745 39.0658 39.9668 35.9271C40.6598 35.5368 41.1718 35.0402 41.5091 34.447C41.8368 33.8697 42 33.2002 42 32.4442C42 32.4442 42 19.8233 41.9979 13.5109Z" fill="#649AD2"/>
<path d="M21.0643 22.9163L0.490875 34.4486C0.828352 35.0423 1.34039 35.5385 2.03339 35.9291C5.35402 37.8013 16.4978 44.0158 18.7228 45.2937C20.2192 46.1533 21.6804 46.1842 23.1878 45.3368C28.7774 42.1948 34.3745 39.0658 39.9668 35.9271C40.6598 35.5368 41.1718 35.0402 41.5091 34.447L21.0643 22.9163Z" fill="#004482"/>
<path d="M14.9707 26.3323C16.1679 28.3668 18.4183 29.7392 21 29.7392C23.5976 29.7392 25.8608 28.3496 27.0519 26.293L21.0643 22.9163L14.9707 26.3323Z" fill="#1A4674"/>
<path d="M41.9979 13.5109C41.9975 12.7383 41.8277 12.0555 41.4843 11.4695L21.0643 22.9163L41.5091 34.447C41.8367 33.8697 41.9997 33.2002 42 32.4442C42 32.4442 42 19.8233 41.9979 13.5109Z" fill="#01589C"/>
<path d="M40.8737 23.7405H39.2761V25.2962H37.6781V23.7405H36.0806V22.1854H37.6781V20.63H39.2761V22.1854H40.8737V23.7405ZM21 9.39917C26.1081 9.39917 30.5744 12.0729 33.0045 16.061L33.0773 16.1823L27.0068 19.5855C25.8038 17.5715 23.5651 16.2163 21 16.2163C17.1642 16.2163 14.0548 19.2435 14.0548 22.9776C14.0535 24.1546 14.3693 25.3113 14.9707 26.3323C16.1679 28.3668 18.4183 29.7392 21 29.7392C23.5691 29.7392 25.8111 28.3799 27.0124 26.3606L27.0519 26.293L33.1136 29.712C30.71 33.8004 26.1855 36.5563 21 36.5563C15.824 36.5563 11.3065 33.8114 8.89974 29.735C7.72473 27.745 7.0524 25.4378 7.0524 22.9776C7.0524 15.4787 13.2968 9.39917 21 9.39917ZM33.4466 20.6299V22.1853H35.0441V23.7405H33.4466V25.2962H31.849V23.7405H30.2513V22.1854H31.849V20.63H33.4466V20.6299Z" fill="white"/>
</g>
<defs>
<clipPath id="clip0_7_44">
<rect width="42" height="46" fill="white"/>
</clipPath>
</defs>
</svg>
