<svg width="52" height="50" viewBox="0 0 52 50" fill="none" xmlns="http://www.w3.org/2000/svg">
<g clip-path="url(#clip0_7_59)">
<path d="M39.8125 0H12.1875C5.45653 0 0 5.24666 0 11.7188V38.2812C0 44.7533 5.45653 50 12.1875 50H39.8125C46.5435 50 52 44.7533 52 38.2812V11.7188C52 5.24666 46.5435 0 39.8125 0Z" fill="#001E36"/>
<path d="M11.7 34.7734V13.3359C11.7 13.19 11.765 13.1068 11.9167 13.1068C12.285 13.1068 12.6317 13.1068 13.13 13.0859C13.65 13.065 14.1917 13.065 14.7767 13.0443C15.3617 13.0234 15.99 13.0234 16.6617 13.0025C17.3333 12.9818 17.9833 12.9818 18.6333 12.9818C20.41 12.9818 21.8833 13.19 23.0967 13.6275C24.1844 13.9827 25.1761 14.5663 26 15.3359C26.6982 16.0094 27.2376 16.8194 27.5817 17.7109C27.9067 18.5859 28.08 19.4818 28.08 20.4193C28.08 22.2109 27.6467 23.69 26.78 24.8568C25.9133 26.0234 24.7 26.8984 23.2917 27.3984C21.8183 27.9193 20.1933 28.1068 18.4167 28.1068C17.8967 28.1068 17.55 28.1068 17.3333 28.0859C17.1167 28.065 16.8133 28.065 16.4017 28.065V34.7525C16.4233 34.8984 16.315 35.0234 16.1633 35.0443H11.96C11.7867 35.0443 11.7 34.9609 11.7 34.7734ZM16.4233 17.1275V24.1275C16.7267 24.1484 17.0083 24.1693 17.2683 24.1693H18.4167C19.2617 24.1693 20.1067 24.0443 20.9083 23.7943C21.6017 23.6068 22.2083 23.2109 22.685 22.69C23.14 22.1693 23.3567 21.4609 23.3567 20.5443C23.3771 19.8932 23.2042 19.2501 22.8583 18.69C22.49 18.1484 21.97 17.7318 21.3417 17.5025C20.54 17.19 19.6733 17.065 18.785 17.0859C18.2217 17.0859 17.7233 17.0859 17.3117 17.1068C16.8783 17.0859 16.575 17.1068 16.4233 17.1275ZM41.6 22.8568C40.95 22.5234 40.2567 22.2943 39.52 22.1484C38.7183 21.9818 37.9167 21.8775 37.0933 21.8775C36.66 21.8568 36.205 21.9193 35.7933 22.0234C35.5117 22.0859 35.2733 22.2318 35.1217 22.44C35.0133 22.6068 34.9483 22.815 34.9483 23.0025C34.9483 23.19 35.035 23.3775 35.165 23.5443C35.36 23.7734 35.62 23.9609 35.9017 24.1068C36.4041 24.357 36.9173 24.5863 37.44 24.7943C38.61 25.1693 39.7367 25.69 40.7767 26.315C41.4917 26.7525 42.0767 27.3359 42.4883 28.0443C42.835 28.7109 43.0083 29.44 42.9867 30.19C43.0083 31.1693 42.705 32.1484 42.1418 32.9609C41.5374 33.7925 40.6941 34.4368 39.715 34.815C38.6533 35.2525 37.3533 35.4818 35.7933 35.4818C34.7967 35.4818 33.8217 35.3984 32.8467 35.2109C32.0826 35.084 31.3394 34.8598 30.6367 34.5443C30.485 34.4609 30.3767 34.315 30.3983 34.1484V30.5234C30.3983 30.4609 30.42 30.3775 30.485 30.3359C30.55 30.2943 30.615 30.315 30.68 30.3568C31.525 30.8359 32.4133 31.1693 33.3667 31.3775C34.19 31.5859 35.0567 31.69 35.9233 31.69C36.7467 31.69 37.3317 31.5859 37.7217 31.3984C38.0683 31.2525 38.3067 30.8984 38.3067 30.5234C38.3067 30.2318 38.1333 29.9609 37.7867 29.69C37.44 29.4193 36.725 29.1068 35.6633 28.7109C34.5742 28.3419 33.5399 27.8376 32.5867 27.2109C31.9078 26.7456 31.3453 26.1406 30.94 25.44C30.5933 24.7734 30.42 24.0443 30.4417 23.315C30.4417 22.4193 30.7017 21.565 31.1783 20.7943C31.72 19.9609 32.5217 19.2943 33.4533 18.8775C34.4717 18.3775 35.75 18.1484 37.2883 18.1484C38.1767 18.1484 39.0868 18.2109 39.975 18.3359C40.625 18.4193 41.2533 18.5859 41.8383 18.815C41.925 18.8359 42.0117 18.9193 42.055 19.0025C42.0767 19.0859 42.0983 19.1693 42.0983 19.2525V22.6484C42.0983 22.7318 42.055 22.815 41.99 22.8568C41.795 22.8984 41.6868 22.8984 41.6 22.8568Z" fill="#31A8FF"/>
</g>
<defs>
<clipPath id="clip0_7_59">
<rect width="52" height="50" fill="white"/>
</clipPath>
</defs>
</svg>
