<svg width="28" height="27" viewBox="0 0 28 27" fill="none" xmlns="http://www.w3.org/2000/svg">
<path d="M14 0.666664C12.2491 0.666664 10.5152 1.01154 8.89757 1.6816C7.2799 2.35167 5.81004 3.33379 4.57193 4.57191C2.07144 7.07239 0.666687 10.4638 0.666687 14C0.666687 19.8933 4.49335 24.8933 9.78669 26.6667C10.4534 26.7733 10.6667 26.36 10.6667 26V23.7467C6.97335 24.5467 6.18669 21.96 6.18669 21.96C5.57335 20.4133 4.70669 20 4.70669 20C3.49335 19.1733 4.80002 19.2 4.80002 19.2C6.13335 19.2933 6.84002 20.5733 6.84002 20.5733C8.00002 22.6 9.96002 22 10.72 21.68C10.84 20.8133 11.1867 20.2267 11.56 19.8933C8.60002 19.56 5.49335 18.4133 5.49335 13.3333C5.49335 11.8533 6.00002 10.6667 6.86669 9.72C6.73335 9.38666 6.26669 8 7.00002 6.2C7.00002 6.2 8.12002 5.84 10.6667 7.56C11.72 7.26666 12.8667 7.12 14 7.12C15.1334 7.12 16.28 7.26666 17.3334 7.56C19.88 5.84 21 6.2 21 6.2C21.7334 8 21.2667 9.38666 21.1334 9.72C22 10.6667 22.5067 11.8533 22.5067 13.3333C22.5067 18.4267 19.3867 19.5467 16.4134 19.88C16.8934 20.2933 17.3334 21.1067 17.3334 22.3467V26C17.3334 26.36 17.5467 26.7867 18.2267 26.6667C23.52 24.88 27.3334 19.8933 27.3334 14C27.3334 12.249 26.9885 10.5152 26.3184 8.89755C25.6484 7.27988 24.6662 5.81002 23.4281 4.57191C22.19 3.33379 20.7201 2.35167 19.1025 1.6816C17.4848 1.01154 15.751 0.666664 14 0.666664Z" fill="black"/>
</svg>
