<svg width="58" height="52" viewBox="0 0 58 52" fill="none" xmlns="http://www.w3.org/2000/svg">
<path d="M10.6974 44.2016L6.62469 3.25H51.3753L47.2972 44.1951L28.9728 48.75L10.6974 44.2016Z" fill="#E44F26"/>
<path d="M29 45.2692L43.8081 41.5886L47.2917 6.59912H29V45.2692Z" fill="#F1662A"/>
<path d="M29 21.7864H21.5869L21.0758 16.6432H29V11.6204H14.9531L15.0873 12.9691L16.4629 26.8092H29V21.7864ZM29 34.8302L28.9746 34.8367L22.736 33.3271L22.3373 29.3215H16.7131L17.4979 37.206L28.9746 40.0627L29 40.0562V34.8302Z" fill="#EBEBEB"/>
<path d="M28.9801 21.7864V26.8092H35.8784L35.2296 33.3239L28.9801 34.8351V40.0611L40.4659 37.206L40.5493 36.3577L41.8651 23.1351L42.0029 21.7864H28.9801ZM28.9801 11.6204V16.6432H42.5122L42.6246 15.5155L42.8801 12.9691L43.0143 11.6204H28.9801Z" fill="white"/>
</svg>
